{"title":"Real Housewives of Melbourne s01e01 PDTV x264 Hector","uid":9655773,"size":360769387,"categoryP":"video","categoryS":"tv_shows","magnet":"?xt=urn:btih:943f952b1f637339e1f2ffa76959827471ce7718&amp;dn=Real+Housewives+of+Melbourne+s01e01+PDTV+x264+Hector&amp;tr=udp%3A%2F%2Ftracker.openbittorrent.com%3A80&amp;tr=udp%3A%2F%2Fopen.demonii.com%3A1337&amp;tr=udp%3A%2F%2Ftracker.coppersurfer.tk%3A6969&amp;tr=udp%3A%2F%2Fexodus.desync.com%3A6969","seeders":9,"leechers":2,"uploader":".SceNe.","files":1,"time":1393178899,"description":"General\nComplete name                            : Real.Housewives.of.Melbourne.s01e01.PDTV.x264.Hector.mp4\nFormat                                   : MPEG-4\nFormat profile                           : Base Media / Version 2\nCodec ID                                 : mp42\nFile size                                : 344 MiB\nDuration                                 : 54mn 2s\nOverall bit rate mode                    : Variable\nOverall bit rate                         : 890 Kbps\nEncoded date                             : UTC 2014-02-23 11:11:38\nTagged date                              : UTC 2014-02-23 11:15:16\nWriting application                      : HandBrake 0.9.9 2013051800\n\nVideo\nID                                       : 1\nFormat                                   : AVC\nFormat/Info                              : Advanced Video Codec\nFormat profile                           : &lt;a class=&quot;__cf_email__&quot; href=&quot;/cdn-cgi/l/email-protection&quot; data-cfemail=&quot;eea6878986aea2ddc0df&quot;&gt;[email&amp;#160;protected]&lt;/a&gt;&lt;script cf-hash='f9e31' type=&quot;text/javascript&quot;&gt;\n/* &lt;![CDATA[ */!function(){try{var t=&quot;currentScript&quot;in document?document.currentScript:function(){for(var t=document.getElementsByTagName(&quot;script&quot;),e=t.length;e--;)if(t[e].getAttribute(&quot;cf-hash&quot;))return t[e]}();if(t&amp;&amp;t.previousSibling){var e,r,n,i,c=t.previousSibling,a=c.getAttribute(&quot;data-cfemail&quot;);if(a){for(e=&quot;&quot;,r=parseInt(a.substr(0,2),16),n=2;a.length-n;n+=2)i=parseInt(a.substr(n,2),16)^r,e+=String.fromCharCode(i);e=document.createTextNode(e),c.parentNode.replaceChild(e,c)}}}catch(u){}}();/* ]]&gt; */&lt;/script&gt;\nFormat settings, CABAC                   : Yes\nFormat settings, ReFrames                : 4 frames\nCodec ID                                 : avc1\nCodec ID/Info                            : Advanced Video Coding\nDuration                                 : 54mn 2s\nBit rate                                 : 730 Kbps\nWidth                                    : 716 pixels\nHeight                                   : 402 pixels\nDisplay aspect ratio                     : 16:9\nFrame rate mode                          : Constant\nFrame rate                               : 25.000 fps\nColor space                              : YUV\nChroma subsampling                       : 4:2:0\nBit depth                                : 8 bits\nScan type                                : Progressive\nBits/(Pixel*Frame)                       : 0.101\nStream size                              : 282 MiB (82%)\nWriting library                          : x264 core 130 r2273 b3065e6\nEncoded date                             : UTC 2014-02-23 11:11:38\nTagged date                              : UTC 2014-02-23 11:15:16\nColor primaries                          : BT.601 PAL\nTransfer characteristics                 : BT.709\nMatrix coefficients                      : BT.601\n\nAudio\nID                                       : 2\nFormat                                   : AAC\nFormat/Info                              : Advanced Audio Codec\nFormat profile                           : LC\nCodec ID                                 : 40\nDuration                                 : 54mn 1s\nBit rate mode                            : Variable\nBit rate                                 : 155 Kbps\nMaximum bit rate                         : 168 Kbps\nChannel(s)                               : 2 channels\nChannel positions                        : Front: L R\nSampling rate                            : 48.0 KHz\nCompression mode                         : Lossy\nStream size                              : 60.1 MiB (17%)\nEncoded date                             : UTC 2014-02-23 11:11:38\nTagged date                              : UTC 2014-02-23 11:15:15\n\n\n\n\n","torrent":{"xt":"urn:btih:943f952b1f637339e1f2ffa76959827471ce7718","amp;dn":"Real+Housewives+of+Melbourne+s01e01+PDTV+x264+Hector","amp;tr":["udp%3A%2F%2Ftracker.openbittorrent.com%3A80","udp%3A%2F%2Fopen.demonii.com%3A1337","udp%3A%2F%2Ftracker.coppersurfer.tk%3A6969","udp%3A%2F%2Fexodus.desync.com%3A6969"],"infoHash":"943f952b1f637339e1f2ffa76959827471ce7718","infoHashBuffer":{"type":"Buffer","data":[148,63,149,43,31,99,115,57,225,242,255,167,105,89,130,116,113,206,119,24]},"announce":[],"urlList":[]}}